# xmcd CD database file
#
# Track frame offsets:
#	150
#	24420
#	49873
#	72121
#	103898
#	129836
#	154204
#	184564
#	219303
#	240947
#	271587
#	297161
#	317375
#
# Disc length: 4415 seconds
#
# Revision: 3
# Processed by: cddbd v1.5.2PL0 Copyright (c) Steve Scherf et al.
# Submitted via: CDex 1.51
#
DISCID=a5113d0d
DTITLE=King, Stephen - Frühling und Sommer
DYEAR=2002
DGENRE=Hörbuch
TTITLE0=062 Frühling und Sommer
TTITLE1=063 Frühling und Sommer
TTITLE2=064 Frühling und Sommer
TTITLE3=065 Frühling und Sommer
TTITLE4=066 Frühling und Sommer
TTITLE5=067 Frühling und Sommer
TTITLE6=068 Frühling und Sommer
TTITLE7=069 Frühling und Sommer
TTITLE8=070 Frühling und Sommer
TTITLE9=071 Frühling und Sommer
TTITLE10=072 Frühling und Sommer
TTITLE11=073 Frühling und Sommer
TTITLE12=074 Frühling und Sommer
EXTD=YEAR: 2002
EXTT0=
EXTT1=
EXTT2=
EXTT3=
EXTT4=
EXTT5=
EXTT6=
EXTT7=
EXTT8=
EXTT9=
EXTT10=
EXTT11=
EXTT12=
PLAYORDER=
